<?xml version="1.0" standalone="no"?><!DOCTYPE svg PUBLIC "-//W3C//DTD SVG 1.1//EN" "http://www.w3.org/Graphics/SVG/1.1/DTD/svg11.dtd"><svg t="1717003964146" class="icon" viewBox="0 0 1024 1024" version="1.1" xmlns="http://www.w3.org/2000/svg" p-id="1505" xmlns:xlink="http://www.w3.org/1999/xlink" width="200" height="200"><path d="M343.04 87.146667c-99.456 11.008-186.410667 63.701333-242.197333 146.730666-88.448 131.690667-73.877333 309.013333 34.922666 424.661334 16.746667 17.792 39.338667 36.864 48.725334 41.130666 14.570667 6.613333 32.661333 3.797333 44.928-6.997333a40.96 40.96 0 0 0 14.272-33.792c-1.088-14.485333-5.248-21.098667-23.381334-37.034667-47.189333-41.557333-74.282667-86.997333-87.573333-146.944-5.376-24.213333-5.376-77.376 0-101.589333 12.650667-57.024 38.848-102.528 80.789333-140.288 31.658667-28.522667 69.866667-47.872 113.792-57.664 23.978667-5.333333 74.026667-5.333333 98.005334 0 23.829333 5.312 40.448 11.349333 62.890666 22.869333 24.917333 12.8 44.138667 27.221333 64.768 48.618667 27.904 28.949333 47.530667 62.037333 60.458667 101.973333 3.306667 10.218667 7.978667 21.141333 10.368 24.277334 6.464 8.448 17.898667 14.485333 29.418667 15.509333 10.282667 0.896 12.8 0.234667 35.946666-9.514667 19.669333-8.32 36.458667-11.008 62.464-10.069333 19.328 0.704 24.533333 1.536 38.549334 6.272 22.485333 7.573333 39.082667 17.472 55.893333 33.322667 57.941333 54.698667 66.368 141.525333 20.053333 206.634666-13.738667 19.285333-33.301333 35.754667-56.32 47.402667-13.781333 6.976-21.397333 14.250667-26.325333 25.130667-7.189333 15.893333-2.56 35.498667 11.328 48 14.016 12.629333 32.448 13.461333 54.186667 2.432a242.517333 242.517333 0 0 0 107.605333-109.312c9.237333-18.944 14.826667-35.584 19.797333-58.88 5.077333-23.722667 5.418667-66.133333 0.768-90.453334-18.837333-98.112-89.664-170.901333-187.050666-192.234666-21.013333-4.586667-71.658667-4.352-92.266667 0.426666l-14.698667 3.413334-8.341333-17.130667C626.602667 175.104 533.973333 106.218667 426.666667 89.514667c-20.586667-3.221333-64.746667-4.458667-83.626667-2.368m-19.562667 365.226666a45.973333 45.973333 0 0 0-20.266666 19.52c-3.562667 6.592-3.690667 8.746667-3.690667 61.44 0 52.928 0.106667 54.826667 3.733333 61.610667A42.24 42.24 0 0 0 341.333333 617.813333a42.24 42.24 0 0 0 38.08-22.869333c3.626667-6.784 3.733333-8.682667 3.733334-61.610667s-0.106667-54.826667-3.733334-61.610666c-4.458667-8.32-13.674667-16.789333-22.144-20.309334-8.746667-3.669333-25.493333-3.178667-33.792 0.96m341.333334 0a45.973333 45.973333 0 0 0-20.266667 19.52c-3.562667 6.592-3.690667 8.746667-3.690667 61.44 0 52.928 0.106667 54.826667 3.733334 61.610667A42.24 42.24 0 0 0 682.666667 617.813333a42.24 42.24 0 0 0 38.08-22.869333c3.626667-6.784 3.733333-8.682667 3.733333-61.610667s-0.106667-54.826667-3.733333-61.610666c-4.458667-8.32-13.674667-16.789333-22.144-20.309334-8.746667-3.669333-25.493333-3.178667-33.792 0.96m-170.666667 85.333334a45.973333 45.973333 0 0 0-20.266667 19.52c-3.562667 6.592-3.690667 8.746667-3.690666 61.44 0 52.928 0.106667 54.826667 3.733333 61.610666A42.24 42.24 0 0 0 512 703.146667a42.24 42.24 0 0 0 38.08-22.869334c3.626667-6.784 3.733333-8.682667 3.733333-61.610666s-0.106667-54.826667-3.733333-61.610667c-4.458667-8.32-13.674667-16.789333-22.144-20.309333-8.746667-3.669333-25.493333-3.178667-33.792 0.96m-166.784 147.648c-11.114667 3.434667-22.698667 15.296-26.090667 26.730666-3.776 12.693333-3.776 99.136 0 111.829334C306.048 840.021333 324.181333 853.333333 341.333333 853.333333c10.133333 0 21.930667-5.141333 29.738667-12.928 12.074667-12.096 12.928-16.832 12.928-72.405333s-0.853333-60.309333-12.928-72.405333c-11.925333-11.904-26.88-15.402667-43.712-10.24m341.333333 0c-5.141333 1.6-10.730667 5.226667-15.744 10.218666-12.096 12.117333-12.949333 16.832-12.949333 72.426667 0 55.573333 0.853333 60.309333 12.928 72.405333 7.808 7.786667 19.605333 12.928 29.738667 12.928 10.133333 0 21.930667-5.141333 29.738666-12.928 12.074667-12.096 12.928-16.832 12.928-72.405333s-0.853333-60.309333-12.928-72.405333c-11.925333-11.904-26.88-15.402667-43.712-10.24m-170.666666 85.333333c-5.141333 1.6-10.730667 5.226667-15.744 10.218667-12.096 12.117333-12.949333 16.832-12.949334 72.426666 0 55.573333 0.853333 60.309333 12.928 72.405334 7.808 7.786667 19.605333 12.928 29.738667 12.928 10.133333 0 21.930667-5.141333 29.738667-12.928 12.074667-12.096 12.928-16.832 12.928-72.405334s-0.853333-60.309333-12.928-72.405333c-11.925333-11.904-26.88-15.402667-43.712-10.24" fill="#1296db" p-id="1506"></path></svg>