<?xml version="1.0" standalone="no"?><!DOCTYPE svg PUBLIC "-//W3C//DTD SVG 1.1//EN" "http://www.w3.org/Graphics/SVG/1.1/DTD/svg11.dtd"><svg t="1717003133940" class="icon" viewBox="0 0 1024 1024" version="1.1" xmlns="http://www.w3.org/2000/svg" p-id="2958" xmlns:xlink="http://www.w3.org/1999/xlink" width="200" height="200"><path d="M772.4 440.9m-231.4 0a231.4 231.4 0 1 0 462.8 0 231.4 231.4 0 1 0-462.8 0Z" fill="#FFFFFF" p-id="2959"></path><path d="M772.4 692.6c-138.8 0-251.6-112.9-251.6-251.6 0-138.8 112.9-251.6 251.6-251.6S1024 302.3 1024 441 911.1 692.6 772.4 692.6z m0-462.9c-116.5 0-211.2 94.8-211.2 211.2S656 652.1 772.4 652.1 983.6 557.4 983.6 441s-94.8-211.3-211.2-211.3z" fill="#403F3F" p-id="2960"></path><path d="M875.2 687.6c0 71.3-57.7 129-129 129H164.1c-79.5 0-143.9-64.6-143.9-144.1 0-22.9 5.4-44.7 15.3-63.9 19.9-41 59.2-71.1 106.1-78.2-1.1-8.9-1.7-17.9-1.7-27.2 0-120.3 97.4-217.5 217.5-217.5 87.9 0 163.7 52.3 198.1 127.4 15.8-6.7 33.1-10.6 51.2-10.6 71.3 0 129 57.7 129 129 0 9.5-1.1 18.8-3 27.9 4.5-0.4 9.1-0.6 13.6-0.6 41.5 0 78.2 19.4 101.7 49.9 17 21.6 27.2 49.1 27.2 78.9z" fill="#33ABE3" p-id="2961"></path><path d="M746.2 836.8H164.1C73.6 836.8 0 763.1 0 672.5c0-25.7 6.1-51 17.6-73.2 20.2-41.8 57.7-72.7 102.3-84.9-0.2-3.8-0.3-7.5-0.3-11.2 0-131.1 106.6-237.7 237.7-237.7 86.6 0 166.4 47.6 208.1 122.7 13.5-3.9 27.3-5.8 41.2-5.8 82.3 0 149.2 66.9 149.2 149.2 0 2.4-0.1 4.9-0.2 7.3 42.8 2.6 81.9 23.3 108.3 57.5 20.5 26.3 31.4 57.9 31.4 91.4 0.1 82-66.8 149-149.1 149z m-388.8-531c-108.8 0-197.3 88.5-197.3 197.3 0 8 0.5 16.1 1.6 24.8l2.4 19.5-19.4 3c-39.5 6-73.5 31.1-90.9 67-8.8 17-13.3 35.9-13.3 55.1 0 68.3 55.5 123.9 123.7 123.9h582.2c60 0 108.7-48.8 108.7-108.8 0-24.4-7.9-47.4-22.9-66.6-23.1-29.9-59.8-45.1-97.5-41.6l-27.5 2.6 5.8-27c1.7-7.9 2.6-15.9 2.6-23.6 0-60-48.8-108.7-108.8-108.7-14.7 0-29.3 3-43.3 9l-18.1 7.7-8.2-17.9C505 351.2 434.5 305.8 357.4 305.8zM619.4 148.4H130.9c-11.2 0-20.2-9-20.2-20.2s9.1-20.2 20.2-20.2h488.6c11.2 0 20.2 9 20.2 20.2s-9.1 20.2-20.3 20.2zM1003.8 916H274.7c-11.2 0-20.2-9.1-20.2-20.2s9.1-20.2 20.2-20.2h729.1c11.2 0 20.2 9.1 20.2 20.2s-9.1 20.2-20.2 20.2zM493.7 227.1H263.9c-11.2 0-20.2-9.1-20.2-20.2 0-11.2 9.1-20.2 20.2-20.2h229.7c11.2 0 20.2 9 20.2 20.2 0.1 11.1-9 20.2-20.1 20.2z" fill="#403F3F" p-id="2962"></path></svg>